HIERARCHY
ROOT Hips
{
 OFFSET 0.000000 0.000000 0.000000
 CHANNELS 6 Xposition Yposition Zposition Yrotation Xrotation Zrotation
 JOINT Chest
 {
  OFFSET 0.000000 9.585900 0.002600
  CHANNELS 3 Yrotation Xrotation Zrotation
  JOINT Chest2
  {
   OFFSET 0.000000 9.601200 -0.005300
   CHANNELS 3 Yrotation Xrotation Zrotation
   JOINT Chest3
   {
    OFFSET 0.000000 9.561800 0.000000
    CHANNELS 3 Yrotation Xrotation Zrotation
    JOINT Chest4
    {
     OFFSET 0.000000 9.552100 0.000000
     CHANNELS 3 Yrotation Xrotation Zrotation
     JOINT Neck
     {
      OFFSET 0.000000 14.453000 0.000000
      CHANNELS 3 Yrotation Xrotation Zrotation
      JOINT Head
      {
       OFFSET 0.000000 8.936500 -0.011300
       CHANNELS 3 Yrotation Xrotation Zrotation
       End Site
       {
        OFFSET 0.000000 17.073600 -0.006000
       }
      }
     }
     JOINT RightCollar
     {
      OFFSET -2.921100 9.558500 0.000000
      CHANNELS 3 Yrotation Xrotation Zrotation
      JOINT RightShoulder
      {
       OFFSET -13.519700 0.000000 0.000000
       CHANNELS 3 Yrotation Xrotation Zrotation
       JOINT RightElbow
       {
        OFFSET 0.000000 -29.696600 0.000000
        CHANNELS 3 Yrotation Xrotation Zrotation
        JOINT RightWrist
        {
         OFFSET 0.000000 -24.004700 0.000000
         CHANNELS 3 Yrotation Xrotation Zrotation
         End Site
         {
          OFFSET 0.000000 -17.728500 0.000000
         }
        }
       }
      }
     }
     JOINT LeftCollar
     {
      OFFSET 2.921100 9.558500 0.000000
      CHANNELS 3 Yrotation Xrotation Zrotation
      JOINT LeftShoulder
      {
       OFFSET 13.519700 0.000000 0.000000
       CHANNELS 3 Yrotation Xrotation Zrotation
       JOINT LeftElbow
       {
        OFFSET 0.000000 -29.696600 0.000000
        CHANNELS 3 Yrotation Xrotation Zrotation
        JOINT LeftWrist
        {
         OFFSET 0.000000 -24.004700 0.000000
         CHANNELS 3 Yrotation Xrotation Zrotation
         End Site
         {
          OFFSET 0.000000 -17.728500 0.000000
         }
        }
       }
      }
     }
    }
   }
  }
 }
 JOINT RightHip
 {
  OFFSET -7.771700 -0.012900 -0.001300
  CHANNELS 3 Yrotation Xrotation Zrotation
  JOINT RightKnee
  {
   OFFSET 0.000000 -40.869800 0.001200
   CHANNELS 3 Yrotation Xrotation Zrotation
   JOINT RightAnkle
   {
    OFFSET 0.000000 -39.717900 0.002100
    CHANNELS 3 Yrotation Xrotation Zrotation
    JOINT RightToe
    {
     OFFSET 0.000000 -4.965400 11.033500
     CHANNELS 3 Yrotation Xrotation Zrotation
     End Site
     {
      OFFSET 0.000000 -1.423100 5.872300
     }
    }
   }
  }
 }
 JOINT LeftHip
 {
  OFFSET 7.771700 -0.012900 -0.001300
  CHANNELS 3 Yrotation Xrotation Zrotation
  JOINT LeftKnee
  {
   OFFSET 0.000000 -40.869800 0.001200
   CHANNELS 3 Yrotation Xrotation Zrotation
   JOINT LeftAnkle
   {
    OFFSET 0.000000 -39.717900 0.002100
    CHANNELS 3 Yrotation Xrotation Zrotation
    JOINT LeftToe
    {
     OFFSET 0.000000 -4.965400 11.033500
     CHANNELS 3 Yrotation Xrotation Zrotation
     End Site
     {
      OFFSET 0.000000 -1.423100 5.872300
     }
    }
   }
  }
 }
}
MOTION
Frames: 12
Frame Time: 0.008333
0.000000 85.388000 0.000000 0.000000 -5.767877 0.000000 0.000000 11.653817 0.000000 0.000000 -5.885947 0.000000 0.000000 -0.000000 0.000000 0.000000 -0.000000 0.000000 0.000000 12.528835 0.000000 0.000000 0.711642 0.000000 0.000000 -0.000000 0.000000 0.000000 0.000000 -90.000000 0.000000 -2.309062 0.000000 0.000000 2.309062 0.000000 0.000000 -0.000000 0.000000 0.000000 -0.000000 90.000000 0.000000 -2.309062 0.000000 0.000000 2.309062 0.000000 0.000000 8.520406 0.000000 0.000000 1.905762 0.000000 -0.000000 -4.658285 0.000000 0.000000 -0.000000 0.000000 0.000000 8.520406 0.000000 0.000000 1.905762 0.000000 -0.000000 -4.658285 0.000000 0.000000 -0.000000 0.000000
-224.805513 57.421176 135.084537 -179.910639 -29.427506 -1.464880 -0.513333 19.637680 2.305716 -0.105102 2.387379 0.302422 -0.170817 3.941253 0.494498 -0.503553 16.929548 2.084767 -0.523444 11.592310 -3.548581 0.509961 -14.183105 -6.573851 3.798313 -2.994923 -1.227705 14.527511 -17.164590 -22.465477 123.841287 -72.120798 -82.976055 14.140572 -19.695152 -48.505383 -7.060148 -3.936594 -2.605694 1.509582 -10.966984 1.633353 -8.389552 -80.260586 -28.626173 -5.313682 -7.058764 22.134140 6.604297 -45.689806 -8.493427 -8.650870 69.488583 -11.335523 4.733324 19.822820 7.566030 -0.313967 -14.084681 2.791934 -10.030658 -44.287365 2.208743 31.240580 70.804181 32.533306 -14.800281 1.502525 -5.201710 0.006257 0.107066 0.005141
-224.803859 57.422127 135.084368 -179.892131 -29.430393 -1.499599 -0.516588 19.631024 2.336011 -0.106674 2.386104 0.298405 -0.170545 3.939435 0.494826 -0.502705 16.927742 2.090506 -0.526548 11.608115 -3.542439 0.499259 -14.151275 -6.552874 3.785124 -2.965965 -1.232665 14.544406 -17.210042 -22.482670 123.819337 -72.129480 -82.944965 14.157925 -19.727370 -48.505913 -7.063009 -3.927850 -2.610172 1.516255 -10.976297 1.640077 -8.388986 -80.263595 -28.634320 -5.319076 -7.060029 22.133511 6.560784 -45.679737 -8.458879 -8.646792 69.480459 -11.327920 4.735750 19.796892 7.576266 -0.323704 -14.060134 2.781851 -10.064939 -44.281089 2.240745 31.234753 70.805773 32.527814 -14.796185 1.532518 -5.198750 0.002064 0.079534 0.004400
-224.805682 57.423299 135.083787 -179.887218 -29.437189 -1.509337 -0.518606 19.628643 2.339122 -0.103563 2.386197 0.300783 -0.170096 3.937872 0.495189 -0.504469 16.922596 2.090237 -0.525618 11.626104 -3.532310 0.488322 -14.125982 -6.537705 3.778768 -2.939077 -1.229716 14.558273 -17.253510 -22.503134 123.821266 -72.118956 -82.934041 14.153694 -19.763216 -48.502043 -7.064167 -3.923057 -2.608241 1.528364 -10.981735 1.646048 -8.388834 -80.265698 -28.645652 -5.324500 -7.060174 22.129810 6.547957 -45.670721 -8.446596 -8.659090 69.477894 -11.341846 4.739527 19.795251 7.579322 -0.322819 -14.059693 2.781007 -10.047790 -44.279745 2.235043 31.239028 70.811828 32.540330 -14.799147 1.534737 -5.191130 -0.002753 0.077069 0.006722
-224.809424 57.423602 135.084738 -179.885263 -29.434510 -1.507828 -0.516060 19.613990 2.336049 -0.100754 2.386648 0.300027 -0.176442 3.945337 0.498069 -0.497108 16.906712 2.092212 -0.532626 11.648274 -3.526641 0.483439 -14.118913 -6.534575 3.764568 -2.890938 -1.228576 14.574499 -17.318233 -22.528751 123.883244 -72.070106 -82.957829 14.092672 -19.757079 -48.515965 -7.066204 -3.918415 -2.611232 1.532703 -10.979394 1.650883 -8.567188 -80.330066 -28.462007 -5.337246 -7.070755 22.115299 6.545654 -45.669006 -8.443729 -8.636996 69.470413 -11.334254 4.732635 19.798767 7.591731 -0.329046 -14.059035 2.781283 -10.041891 -44.283928 2.230162 31.253436 70.805519 32.547153 -14.802822 1.540495 -5.182053 -0.004706 0.077415 0.005146
-224.812239 57.424281 135.085126 -179.881867 -29.436705 -1.513423 -0.501773 19.599817 2.339266 -0.106437 2.392041 0.302631 -0.177880 3.942510 0.499051 -0.494987 16.902932 2.092813 -0.540234 11.666237 -3.519795 0.467647 -14.075814 -6.507085 3.754894 -2.870410 -1.222322 14.588550 -17.362392 -22.554879 123.920652 -72.041811 -82.962898 14.045355 -19.758089 -48.526115 -7.071533 -3.916746 -2.610948 1.536473 -10.974618 1.655850 -8.623601 -80.358722 -28.406939 -5.326013 -7.058206 22.110314 6.542120 -45.663712 -8.435182 -8.624067 69.464478 -11.328778 4.730140 19.803433 7.596631 -0.328159 -14.061181 2.785139 -10.043096 -44.282887 2.233344 31.258096 70.806322 32.550112 -14.808036 1.540039 -5.179370 -0.011585 0.077195 0.003380
-224.814944 57.424799 135.085903 -179.878782 -29.436822 -1.519595 -0.487859 19.588604 2.345741 -0.117906 2.400477 0.304955 -0.149011 3.915085 0.492120 -0.478804 16.891402 2.099186 -0.574108 11.711626 -3.499477 0.431225 -13.986898 -6.459120 3.703353 -2.812482 -1.206231 14.602724 -17.403206 -22.570964 123.968485 -71.995163 -82.983718 14.077257 -19.839606 -48.532933 -7.104795 -3.891733 -2.602818 1.527046 -10.961988 1.660141 -8.676979 -80.392368 -28.349419 -5.316768 -7.045417 22.107932 6.540104 -45.662831 -8.431956 -8.613369 69.462627 -11.318121 4.726556 19.808385 7.599055 -0.327961 -14.064214 2.786062 -10.040098 -44.284213 2.237274 31.256379 70.809300 32.549114 -14.820935 1.537323 -5.175623 -0.004691 0.078093 0.002405
-224.817721 57.425701 135.086119 -179.875137 -29.440765 -1.525036 -0.466221 19.578081 2.353895 -0.124020 2.399314 0.304699 -0.142664 3.913733 0.493686 -0.468274 16.884722 2.102866 -0.571791 11.739185 -3.489026 0.392186 -13.967435 -6.441371 3.660809 -2.750981 -1.203582 14.622530 -17.466878 -22.589697 124.016247 -71.944116 -83.003613 14.085071 -19.907984 -48.544149 -7.122654 -3.887062 -2.601565 1.510451 -10.961516 1.666443 -8.697606 -80.402862 -28.319760 -5.351447 -7.091449 22.126191 6.534831 -45.658242 -8.427732 -8.598956 69.461046 -11.304428 4.717443 19.816346 7.601720 -0.324757 -14.069666 2.783995 -10.029617 -44.281471 2.232919 31.247770 70.811382 32.547203 -14.824547 1.535412 -5.176577 -0.002573 0.079200 0.005440
-224.820513 57.426447 135.086842 -179.862027 -29.440368 -1.533946 -0.453434 19.567619 2.361209 -0.108608 2.387834 0.303899 -0.153700 3.918857 0.495360 -0.456583 16.877478 2.106442 -0.581168 11.765166 -3.479087 0.362271 -13.946477 -6.422111 3.624429 -2.721803 -1.191963 14.647615 -17.519996 -22.628822 124.029587 -71.919493 -82.992222 14.079240 -19.977944 -48.557581 -7.139001 -3.886812 -2.598203 1.495321 -10.957520 1.671280 -8.698180 -80.392894 -28.322111 -5.381411 -7.134270 22.148305 6.525354 -45.654908 -8.426753 -8.570840 69.456241 -11.278495 4.709323 19.823445 7.605903 -0.324571 -14.073493 2.784311 -10.023594 -44.283389 2.225783 31.237076 70.813558 32.544458 -14.826156 1.533816 -5.178321 -0.003460 0.081534 0.011806
-224.822418 57.427489 135.087320 -179.856145 -29.440668 -1.543121 -0.434230 19.557591 2.371041 -0.099617 2.382401 0.303056 -0.157238 3.917819 0.496656 -0.442066 16.870148 2.110092 -0.588162 11.793591 -3.469678 0.334966 -13.903120 -6.395417 3.588966 -2.692195 -1.178995 14.704311 -17.623228 -22.732221 123.931726 -72.011278 -82.890976 14.117134 -20.079764 -48.563672 -7.127031 -3.917640 -2.598504 1.451476 -10.922425 1.684256 -8.671712 -80.412427 -28.342145 -5.390342 -7.144533 22.157520 6.511651 -45.649591 -8.415592 -8.564942 69.448994 -11.275426 4.709177 19.822581 7.607249 -0.331052 -14.070798 2.786642 -10.019283 -44.282086 2.229304 31.219232 70.814405 32.531423 -14.824591 1.532645 -5.179268 0.001832 0.083541 0.014079
-224.823952 57.429028 135.087179 -179.847664 -29.443548 -1.554007 -0.424042 19.552714 2.379623 -0.092155 2.376687 0.302833 -0.153474 3.914056 0.496882 -0.446126 16.875107 2.114797 -0.573846 11.814036 -3.467515 0.329236 -13.801773 -6.367383 3.580207 -2.668267 -1.176275 14.733640 -17.695327 -22.791785 123.972483 -71.974724 -82.897926 14.084961 -20.188601 -48.592655 -7.117947 -3.935552 -2.598506 1.446649 -10.949426 1.683281 -8.711814 -80.420846 -28.290911 -5.381139 -7.141775 22.145149 6.483957 -45.637360 -8.396414 -8.545203 69.439530 -11.263663 4.708140 19.812140 7.605817 -0.327447 -14.062180 2.787079 -10.018529 -44.280693 2.230940 31.215008 70.815663 32.531915 -14.825224 1.533919 -5.176855 0.002784 0.082633 0.013133
-224.826661 57.430693 135.086944 -179.842837 -29.445235 -1.554048 -0.423998 19.551798 2.377558 -0.075017 2.364248 0.301315 -0.162303 3.920175 0.498732 -0.438685 16.872007 2.115856 -0.555508 11.836528 -3.464093 0.326847 -13.720627 -6.347833 3.575324 -2.644884 -1.173921 14.767416 -17.777186 -22.860552 124.003778 -71.940859 -82.887974 14.035607 -20.351355 -48.635622 -7.106104 -3.955884 -2.598666 1.433639 -10.953294 1.685540 -8.711585 -80.407610 -28.293314 -5.408900 -7.182398 22.155555 6.473987 -45.631339 -8.393250 -8.553006 69.437481 -11.277737 4.712684 19.804200 7.606739 -0.324368 -14.057921 2.787257 -9.995544 -44.286268 2.208197 31.199543 70.826671 32.525062 -14.802208 1.536036 -5.166856 -0.011096 0.078972 0.011862
